<svg
        width="203"
        height="162"
        viewBox="0 0 203 162"
        fill="none"
        xmlns="http://www.w3.org/2000/svg"
      >
        <path
          d="M26.0573 35.854C38.2433 35.854 49.1466 45.3601 49.1466 56.6819C49.1466 65.3335 41.2364 72.4898 34.1813 75.16C28.0883 77.5098 25.8435 80.6073 25.8435 86.2682C25.8435 91.3951 26.2711 97.056 26.2711 102.29C26.2711 105.387 24.4539 107.096 21.9953 107.096C17.6126 107.096 10.8782 102.29 10.8782 96.2015C10.8782 90.9678 11.4127 85.7342 11.4127 80.5005C11.4127 72.7034 8.63342 64.2654 8.63342 56.1479C8.63342 45.2533 15.0471 35.854 26.0573 35.854ZM61.9723 85.841C67.2102 86.375 71.2722 92.8904 71.2722 98.3377C71.2722 101.969 67.9585 106.348 63.7896 106.348C58.7655 106.348 54.4897 99.5126 54.4897 92.7836C54.4897 87.2295 57.8034 85.841 61.9723 85.841ZM70.2033 56.5751C69.6688 61.0611 66.5688 64.6926 63.0413 64.6926C58.4448 64.6926 54.5966 60.9543 54.5966 57.1091C54.5966 52.9436 58.0172 49.2052 62.293 49.2052C66.2481 49.2052 70.2033 53.3708 70.2033 56.5751ZM106.152 85.3069C94.7145 90.327 97.3869 113.184 86.2698 113.184C79.7492 113.184 77.7184 107.63 77.7184 101.756C77.7184 94.4926 82.4216 87.1227 89.3698 85.4137C97.6007 83.4912 100.38 72.917 108.611 72.917C116.842 72.917 121.545 83.3843 121.545 89.2589C121.545 94.1721 122.507 98.6581 128.493 100.474C130.524 101.115 132.555 102.503 132.555 104.746C132.555 108.164 129.028 110.728 125.821 110.728C112.673 110.728 109.573 95.2402 106.152 85.3069ZM161.2 95.1334C157.138 98.6581 153.717 100.367 150.511 100.367C147.197 100.367 137.149 95.1334 137.149 89.2589C137.149 88.2976 137.576 87.2295 138.431 86.2682C140.569 84.0252 141.104 81.6754 141.104 79.3256C141.104 73.5578 138.752 64.7994 136.507 58.3909C135.973 57.0023 135.759 55.6138 135.759 54.4389C135.759 50.3801 138.538 47.1758 142.6 47.1758C145.7 47.1758 148.8 49.0984 151.152 52.3027C152.435 54.5457 152.542 56.8955 153.397 59.0317C154.679 64.1586 155.748 74.0919 160.024 74.0919C163.231 74.0919 169.752 70.9944 173.279 70.9944C177.02 70.9944 183.22 73.7715 183.22 78.6847C183.22 81.9958 175.631 81.7822 175.631 86.2682C175.631 90.4338 178.624 94.2789 183.113 94.813C185.038 95.0266 186.748 94.9198 188.031 96.5219C189.741 98.6581 191.344 100.474 191.344 102.931C191.344 107.203 187.389 109.446 184.182 109.446C174.134 109.446 167.614 101.542 161.2 95.1334Z"
          fill="white"
        />
        <path
          d="M16.0076 133.434C15.0508 133.434 14.1689 133.284 13.3619 132.985C12.5665 132.674 11.8691 132.236 11.2696 131.672C10.6817 131.107 10.2206 130.445 9.88627 129.685C9.56346 128.925 9.4021 128.09 9.4021 127.18C9.4021 126.269 9.56346 125.434 9.88627 124.674C10.2206 123.914 10.6874 123.252 11.2869 122.687C11.8864 122.123 12.5895 121.691 13.3965 121.391C14.2035 121.08 15.0911 120.925 16.0595 120.925C17.1315 120.925 18.0942 121.103 18.9472 121.46C19.8118 121.818 20.538 122.336 21.126 123.016L19.3276 124.674C18.8896 124.213 18.4111 123.874 17.8924 123.655C17.3736 123.425 16.8087 123.309 16.1978 123.309C15.6099 123.309 15.0738 123.401 14.5896 123.586C14.1055 123.77 13.6847 124.035 13.3273 124.38C12.9815 124.726 12.7106 125.135 12.5146 125.607C12.3302 126.079 12.238 126.604 12.238 127.18C12.238 127.744 12.3302 128.263 12.5146 128.735C12.7106 129.207 12.9815 129.621 13.3273 129.979C13.6847 130.324 14.0997 130.589 14.5724 130.773C15.0565 130.958 15.5868 131.05 16.1632 131.05C16.7165 131.05 17.2526 130.963 17.7713 130.791C18.3017 130.606 18.8146 130.301 19.3103 129.875L20.9012 131.896C20.2441 132.392 19.4775 132.772 18.6014 133.037C17.7368 133.301 16.8722 133.434 16.0076 133.434ZM18.342 131.534V126.989H20.9012V131.896L18.342 131.534ZM46.6744 133.434C45.7175 133.434 44.8299 133.279 44.0115 132.968C43.2045 132.657 42.5013 132.219 41.9019 131.655C41.3139 131.09 40.8528 130.428 40.5185 129.668C40.1957 128.907 40.0343 128.078 40.0343 127.18C40.0343 126.281 40.1957 125.452 40.5185 124.691C40.8528 123.931 41.3197 123.269 41.9191 122.705C42.5185 122.14 43.2218 121.702 44.0288 121.391C44.8357 121.08 45.7118 120.925 46.6571 120.925C47.6139 120.925 48.49 121.08 49.2855 121.391C50.0924 121.702 50.7899 122.14 51.3778 122.705C51.9772 123.269 52.4441 123.931 52.7784 124.691C53.1127 125.44 53.2799 126.269 53.2799 127.18C53.2799 128.078 53.1127 128.913 52.7784 129.685C52.4441 130.445 51.9772 131.107 51.3778 131.672C50.7899 132.225 50.0924 132.657 49.2855 132.968C48.49 133.279 47.6196 133.434 46.6744 133.434ZM46.6571 131.05C47.1989 131.05 47.6946 130.958 48.1442 130.773C48.6053 130.589 49.0088 130.324 49.3546 129.979C49.7005 129.633 49.9656 129.224 50.1501 128.752C50.346 128.28 50.444 127.755 50.444 127.18C50.444 126.604 50.346 126.079 50.1501 125.607C49.9656 125.135 49.7005 124.726 49.3546 124.38C49.0203 124.035 48.6226 123.77 48.1615 123.586C47.7004 123.401 47.1989 123.309 46.6571 123.309C46.1152 123.309 45.6138 123.401 45.1527 123.586C44.7031 123.77 44.3054 124.035 43.9596 124.38C43.6137 124.726 43.3428 125.135 43.1469 125.607C42.9624 126.079 42.8702 126.604 42.8702 127.18C42.8702 127.744 42.9624 128.268 43.1469 128.752C43.3428 129.224 43.6079 129.633 43.9423 129.979C44.2881 130.324 44.6916 130.589 45.1527 130.773C45.6138 130.958 46.1152 131.05 46.6571 131.05ZM72.677 133.227V121.132H77.9164C79.0001 121.132 79.9339 121.31 80.7175 121.668C81.5012 122.013 82.1064 122.514 82.5332 123.171C82.96 123.828 83.173 124.611 83.173 125.521C83.173 126.419 82.96 127.197 82.5332 127.853C82.1064 128.498 81.5012 128.994 80.7175 129.339C79.9339 129.685 79.0001 129.858 77.9164 129.858H74.2333L75.4783 128.631V133.227H72.677ZM80.3717 133.227L77.3458 128.838H80.3371L83.3978 133.227H80.3717ZM75.4783 128.942L74.2333 127.629H77.7608C78.6254 127.629 79.2705 127.444 79.6973 127.076C80.1241 126.696 80.3371 126.177 80.3371 125.521C80.3371 124.852 80.1241 124.334 79.6973 123.966C79.2705 123.597 78.6254 123.413 77.7608 123.413H74.2333L75.4783 122.082V128.942ZM102.684 133.227V121.132H105.486V133.227H102.684ZM125.65 133.227V121.132H128.452V130.946H134.521V133.227H125.65ZM153.378 133.227V121.132H156.179V130.946H162.249V133.227H153.378ZM179.582 133.227L184.977 121.132H187.744L193.156 133.227H190.216L185.79 122.549H186.896L182.452 133.227H179.582ZM182.28 130.635L183.023 128.51H189.248L190.009 130.635H182.28Z"
          fill="white"
        />
        <path
          d="M39.5229 150.568C39.1037 150.568 38.7159 150.499 38.3596 150.363C38.0085 150.222 37.7019 150.026 37.44 149.774C37.1832 149.518 36.9815 149.219 36.8348 148.879C36.688 148.539 36.6147 148.164 36.6147 147.756C36.6147 147.348 36.688 146.973 36.8348 146.633C36.9815 146.293 37.1859 145.997 37.4478 145.746C37.7098 145.489 38.0163 145.292 38.3674 145.157C38.7237 145.015 39.1115 144.944 39.5307 144.944C39.9552 144.944 40.3456 145.017 40.7018 145.164C41.0634 145.306 41.3699 145.518 41.6215 145.801L41.1106 146.295C40.9009 146.075 40.6651 145.913 40.4032 145.808C40.1412 145.698 39.8608 145.643 39.5622 145.643C39.253 145.643 38.9648 145.696 38.6976 145.801C38.4356 145.905 38.2077 146.052 38.0138 146.24C37.8198 146.429 37.6679 146.654 37.5579 146.916C37.4531 147.173 37.4007 147.452 37.4007 147.756C37.4007 148.06 37.4531 148.343 37.5579 148.604C37.6679 148.861 37.8198 149.083 38.0138 149.272C38.2077 149.46 38.4356 149.607 38.6976 149.712C38.9648 149.816 39.253 149.869 39.5622 149.869C39.8608 149.869 40.1412 149.816 40.4032 149.712C40.6651 149.602 40.9009 149.434 41.1106 149.209L41.6215 149.704C41.3699 149.987 41.0634 150.201 40.7018 150.348C40.3456 150.495 39.9526 150.568 39.5229 150.568ZM46.6727 150.505V145.007H48.8185C49.3005 145.007 49.7118 145.083 50.0525 145.235C50.393 145.387 50.655 145.607 50.8385 145.895C51.0218 146.183 51.1136 146.525 51.1136 146.924C51.1136 147.322 51.0218 147.664 50.8385 147.952C50.655 148.235 50.393 148.453 50.0525 148.604C49.7118 148.756 49.3005 148.832 48.8185 148.832H47.105L47.4587 148.471V150.505H46.6727ZM50.3512 150.505L48.9521 148.51H49.7931L51.2079 150.505H50.3512ZM47.4587 148.549L47.105 148.164H48.7949C49.2979 148.164 49.6778 148.057 49.9346 147.842C50.1966 147.623 50.3276 147.316 50.3276 146.924C50.3276 146.531 50.1966 146.227 49.9346 146.013C49.6778 145.798 49.2979 145.691 48.7949 145.691H47.105L47.4587 145.298V148.549ZM57.0286 147.379H59.8582V148.047H57.0286V147.379ZM57.0994 149.822H60.3062V150.505H56.3134V145.007H60.1962V145.691H57.0994V149.822ZM64.6757 150.505L67.1673 145.007H67.9454L70.4449 150.505H69.6196L67.3952 145.447H67.7096L65.4853 150.505H64.6757ZM65.7368 149.13L65.949 148.502H69.0458L69.2738 149.13H65.7368ZM76.0118 150.505V145.691H74.1255V145.007H78.6764V145.691H76.79V150.505H76.0118ZM83.4622 150.505V145.007H84.2482V150.505H83.4622ZM91.3598 150.505L88.939 145.007H89.7878L92.0122 150.081H91.5249L93.765 145.007H94.551L92.138 150.505H91.3598ZM99.8973 147.379H102.727V148.047H99.8973V147.379ZM99.968 149.822H103.175V150.505H99.182V145.007H103.065V145.691H99.968V149.822ZM113.585 150.505L116.077 145.007H116.855L119.355 150.505H118.529L116.305 145.447H116.619L114.395 150.505H113.585ZM114.646 149.13L114.859 148.502H117.955L118.183 149.13H114.646ZM126.513 150.568C126.088 150.568 125.697 150.499 125.341 150.363C124.985 150.222 124.676 150.026 124.414 149.774C124.151 149.518 123.947 149.219 123.801 148.879C123.654 148.539 123.581 148.164 123.581 147.756C123.581 147.348 123.654 146.973 123.801 146.633C123.947 146.293 124.151 145.997 124.414 145.746C124.681 145.489 124.992 145.292 125.349 145.157C125.705 145.015 126.098 144.944 126.528 144.944C126.963 144.944 127.361 145.015 127.723 145.157C128.085 145.298 128.391 145.51 128.643 145.793L128.155 146.28C127.93 146.06 127.684 145.9 127.416 145.801C127.154 145.696 126.869 145.643 126.56 145.643C126.245 145.643 125.951 145.696 125.679 145.801C125.412 145.905 125.179 146.052 124.98 146.24C124.786 146.429 124.634 146.654 124.524 146.916C124.419 147.173 124.367 147.452 124.367 147.756C124.367 148.055 124.419 148.335 124.524 148.596C124.634 148.853 124.786 149.078 124.98 149.272C125.179 149.46 125.412 149.607 125.679 149.712C125.947 149.816 126.237 149.869 126.552 149.869C126.845 149.869 127.126 149.824 127.393 149.735C127.665 149.641 127.916 149.486 128.147 149.272L128.595 149.869C128.323 150.099 128.003 150.275 127.637 150.395C127.275 150.51 126.9 150.568 126.513 150.568ZM127.841 149.767V147.725H128.595V149.869L127.841 149.767ZM134.745 147.379H137.575V148.047H134.745V147.379ZM134.816 149.822H138.023V150.505H134.03V145.007H137.913V145.691H134.816V149.822ZM143.225 150.505V145.007H143.87L147.509 149.523H147.171V145.007H147.957V150.505H147.312L143.673 145.989H144.011V150.505H143.225ZM155.994 150.568C155.575 150.568 155.187 150.499 154.831 150.363C154.48 150.222 154.173 150.026 153.911 149.774C153.654 149.518 153.452 149.219 153.306 148.879C153.159 148.539 153.086 148.164 153.086 147.756C153.086 147.348 153.159 146.973 153.306 146.633C153.452 146.293 153.657 145.997 153.919 145.746C154.181 145.489 154.488 145.292 154.839 145.157C155.195 145.015 155.582 144.944 156.002 144.944C156.427 144.944 156.816 145.017 157.173 145.164C157.535 145.306 157.841 145.518 158.093 145.801L157.582 146.295C157.372 146.075 157.136 145.913 156.875 145.808C156.612 145.698 156.332 145.643 156.034 145.643C155.724 145.643 155.436 145.696 155.169 145.801C154.907 145.905 154.679 146.052 154.485 146.24C154.291 146.429 154.139 146.654 154.029 146.916C153.924 147.173 153.872 147.452 153.872 147.756C153.872 148.06 153.924 148.343 154.029 148.604C154.139 148.861 154.291 149.083 154.485 149.272C154.679 149.46 154.907 149.607 155.169 149.712C155.436 149.816 155.724 149.869 156.034 149.869C156.332 149.869 156.612 149.816 156.875 149.712C157.136 149.602 157.372 149.434 157.582 149.209L158.093 149.704C157.841 149.987 157.535 150.201 157.173 150.348C156.816 150.495 156.423 150.568 155.994 150.568ZM164.38 150.505V148.4L164.561 148.887L162.195 145.007H163.036L165.025 148.282H164.569L166.565 145.007H167.343L164.985 148.887L165.158 148.4V150.505H164.38Z"
          fill="white"
        />
        <path d="M8.72766 148.149H32.3074" stroke="white" stroke-width="2" />
        <path d="M169.856 148.149H193.436" stroke="white" stroke-width="2" />
      </svg>